<?xml version="1.0" standalone="no"?>
<!DOCTYPE svg PUBLIC "-//W3C//DTD SVG 20010904//EN"
 "http://www.w3.org/TR/2001/REC-SVG-20010904/DTD/svg10.dtd">
<svg version="1.0" xmlns="http://www.w3.org/2000/svg"
 width="821.000000pt" height="768.000000pt" viewBox="0 0 821.000000 768.000000"
 preserveAspectRatio="xMidYMid meet">

<g transform="translate(0.000000,768.000000) scale(0.100000,-0.100000)"
fill="#000000" stroke="none">
<path d="M2617 7272 c3 -7 129 -219 281 -470 151 -251 304 -506 340 -567 35
-60 70 -116 77 -124 11 -11 22 0 64 63 46 68 54 75 79 71 15 -2 77 -12 137
-20 421 -61 920 -199 1295 -357 503 -212 879 -478 1291 -914 49 -52 88 -95
176 -197 26 -30 244 -314 281 -366 115 -161 258 -383 336 -523 l37 -67 -82
-118 c-45 -65 -84 -125 -86 -134 -5 -19 -30 -15 425 -65 257 -28 342 -41 338
-50 -6 -17 -824 -1205 -842 -1224 -12 -12 -26 -6 -104 48 -50 35 -95 60 -100
57 -9 -6 -300 -423 -300 -431 0 -2 84 -5 187 -6 l187 -3 76 -174 c42 -96 80
-176 85 -177 8 -3 263 359 297 420 5 9 -26 35 -92 81 -55 37 -100 72 -100 76
0 5 203 304 452 665 l452 656 63 -5 63 -6 0 295 0 295 -34 75 -35 74 35 0 34
0 0 95 0 94 -37 10 c-21 6 -61 11 -89 11 l-50 0 -644 1296 c-355 712 -649
1299 -655 1303 -5 5 -428 43 -940 85 -511 42 -986 82 -1055 88 -1207 104
-1847 152 -1843 140z m5184 -3425 c36 -24 79 -90 79 -122 0 -122 -129 -212
-229 -161 -37 19 -91 81 -92 106 -5 78 1 109 28 141 52 62 151 79 214 36z"/>
<path d="M3537 6008 c-14 -18 -152 -217 -306 -442 l-282 -410 198 -52 c559
-149 1092 -363 1476 -592 442 -265 906 -716 1358 -1322 47 -63 103 -141 124
-172 21 -32 43 -58 49 -57 6 0 147 199 313 441 l303 442 -41 75 c-116 212
-394 604 -587 826 -430 495 -806 768 -1362 988 -316 125 -759 243 -1075 286
-44 7 -94 14 -112 17 -27 4 -35 0 -56 -28z"/>
<path d="M1217 4243 c-4 -3 -7 -273 -7 -600 l0 -593 172 2 171 3 17 60 c78
276 332 661 474 720 34 15 301 34 464 35 l72 0 -2 -1522 c-3 -1710 4 -1561
-78 -1613 -53 -33 -97 -42 -285 -60 -88 -8 -179 -17 -202 -20 l-43 -6 0 -175
0 -174 975 0 975 0 0 180 0 180 -67 0 c-126 0 -392 57 -456 97 -25 16 -46 41
-60 71 l-22 47 -3 1493 c-2 1337 -1 1493 13 1498 8 4 121 1 251 -5 279 -13
287 -15 389 -120 133 -136 283 -393 346 -591 l32 -100 163 0 164 0 0 600 0
600 -1723 0 c-948 0 -1727 -3 -1730 -7z"/>
</g>
</svg>
