<?xml version="1.0" standalone="no"?>
<!DOCTYPE svg PUBLIC "-//W3C//DTD SVG 20010904//EN"
 "http://www.w3.org/TR/2001/REC-SVG-20010904/DTD/svg10.dtd">
<svg version="1.0" xmlns="http://www.w3.org/2000/svg"
 width="2841.000000pt" height="846.000000pt" viewBox="0 0 2841.000000 846.000000"
 preserveAspectRatio="xMidYMid meet">

<g transform="translate(0.000000,846.000000) scale(0.100000,-0.100000)"
fill="#000000" stroke="none">
<path d="M22287 7542 c3 -7 129 -219 281 -470 151 -251 304 -506 340 -567 35
-60 70 -116 77 -124 11 -11 22 0 64 63 46 68 54 75 79 71 15 -2 77 -12 137
-20 421 -61 920 -199 1295 -357 503 -212 879 -478 1291 -914 49 -52 88 -95
176 -197 26 -30 244 -314 281 -366 115 -161 258 -383 336 -523 l37 -67 -82
-118 c-45 -65 -84 -125 -86 -134 -5 -19 -30 -15 425 -65 257 -28 342 -41 338
-50 -6 -17 -824 -1205 -842 -1224 -12 -12 -26 -6 -104 48 -50 35 -95 60 -100
57 -9 -6 -300 -423 -300 -431 0 -2 84 -5 187 -6 l187 -3 76 -174 c42 -96 80
-176 85 -177 8 -3 263 359 297 420 5 9 -26 35 -92 81 -55 37 -100 72 -100 76
0 8 882 1293 901 1313 5 6 92 0 220 -13 116 -12 212 -21 214 -19 1 2 -37 84
-86 183 -49 99 -92 188 -95 198 -4 13 13 43 56 98 76 99 110 169 110 231 0 74
-22 106 -112 167 -89 61 -211 101 -304 101 l-50 0 -644 1296 c-355 712 -649
1299 -655 1303 -5 5 -428 43 -940 85 -511 42 -986 82 -1055 88 -1207 104
-1847 152 -1843 140z m5349 -3133 c56 -14 79 -44 64 -83 -11 -31 -59 -96 -70
-96 -3 0 -20 26 -35 58 -16 31 -37 74 -47 95 l-18 37 30 0 c17 0 51 -5 76 -11z
m-165 -292 c36 -24 79 -90 79 -122 0 -122 -129 -212 -229 -161 -37 19 -91 81
-92 106 -5 78 1 109 28 141 52 62 151 79 214 36z"/>
<path d="M23207 6278 c-14 -18 -152 -217 -306 -442 l-282 -410 198 -52 c559
-149 1092 -363 1476 -592 442 -265 906 -716 1358 -1322 47 -63 103 -141 124
-172 21 -32 43 -58 49 -57 6 0 147 199 313 441 l303 442 -41 75 c-116 212
-394 604 -587 826 -430 495 -806 768 -1362 988 -316 125 -759 243 -1075 286
-44 7 -94 14 -112 17 -27 4 -35 0 -56 -28z"/>
<path d="M12955 5764 c-302 -18 -551 -33 -552 -33 -2 -1 -3 -73 -3 -160 l0
-160 43 -5 c23 -3 89 -10 147 -16 216 -22 311 -54 361 -123 60 -83 62 -100 67
-576 4 -417 3 -434 -15 -427 -179 71 -309 96 -513 103 -154 4 -188 2 -280 -17
-130 -27 -200 -50 -316 -104 -523 -247 -835 -834 -785 -1476 51 -642 385
-1120 897 -1284 124 -40 202 -49 358 -43 114 4 158 10 231 31 114 34 250 99
348 165 l77 52 0 -54 c0 -49 3 -56 43 -95 37 -37 48 -42 87 -42 65 0 973 60
988 65 10 4 12 42 10 167 l-3 163 -70 2 c-38 2 -113 7 -165 13 -113 13 -155
35 -197 107 l-28 48 -3 1825 -2 1825 -42 42 c-38 39 -47 43 -88 42 -25 -1
-292 -16 -595 -35z m-344 -1774 c150 -28 293 -141 368 -290 l41 -82 0 -741 0
-741 -57 -53 c-136 -126 -251 -181 -403 -190 -286 -18 -513 139 -639 441 -152
366 -109 1021 90 1359 50 86 173 211 245 249 100 54 230 71 355 48z"/>
<path d="M207 5453 c-4 -3 -7 -273 -7 -600 l0 -593 172 2 171 3 17 60 c78 276
332 661 474 720 34 15 301 34 464 35 l72 0 -2 -1522 c-3 -1710 4 -1561 -78
-1613 -53 -33 -97 -42 -285 -60 -88 -8 -179 -17 -202 -20 l-43 -6 0 -175 0
-174 975 0 975 0 0 180 0 180 -67 0 c-126 0 -392 57 -456 97 -25 16 -46 41
-60 71 l-22 47 -3 1493 c-2 1337 -1 1493 13 1498 8 4 121 1 251 -5 279 -13
287 -15 389 -120 133 -136 283 -393 346 -591 l32 -100 163 0 164 0 0 600 0
600 -1723 0 c-948 0 -1727 -3 -1730 -7z"/>
<path d="M6800 4700 l0 -410 -240 0 -240 0 0 -210 0 -210 235 0 234 0 3 -932
3 -933 28 -99 c49 -180 152 -319 282 -381 112 -53 195 -68 370 -68 176 0 290
16 426 59 99 31 339 123 357 137 9 7 12 57 12 188 0 99 -3 179 -6 179 -4 0
-38 -11 -75 -25 -86 -31 -256 -48 -417 -43 -107 3 -122 6 -172 33 -45 25 -59
40 -82 85 -16 30 -33 78 -40 105 -7 34 -12 306 -15 873 l-4 822 375 0 376 0 0
210 0 210 -375 0 -375 0 0 410 0 410 -330 0 -330 0 0 -410z"/>
<path d="M4785 4374 c-73 -6 -245 -51 -349 -91 -240 -91 -436 -250 -517 -419
-27 -57 -33 -83 -37 -161 -4 -79 -1 -103 18 -160 60 -176 161 -248 351 -248
90 0 99 2 171 38 129 63 198 171 198 307 0 37 -9 109 -20 160 -29 134 -28 135
27 160 89 39 162 52 263 48 125 -6 182 -31 254 -108 98 -107 125 -190 133
-416 l6 -160 -104 -41 c-109 -43 -226 -85 -569 -201 -416 -142 -581 -237 -708
-409 -56 -76 -101 -174 -128 -278 -14 -54 -18 -104 -18 -215 1 -126 5 -156 27
-227 44 -141 122 -255 233 -343 80 -63 157 -101 271 -134 81 -23 110 -26 240
-26 301 0 512 77 745 271 l61 50 27 -49 c45 -82 69 -110 133 -155 109 -77 230
-111 382 -110 114 2 206 20 370 76 l130 44 3 161 2 161 -159 3 c-159 3 -159 3
-203 33 -86 60 -81 5 -74 820 3 422 2 765 -4 830 -12 147 -40 250 -97 365 -39
79 -62 110 -134 182 -123 122 -242 179 -464 222 -72 15 -370 27 -460 20z m487
-1834 l-3 -375 -74 -71 c-86 -83 -147 -125 -224 -156 -47 -18 -77 -22 -181
-22 -117 -1 -128 1 -175 26 -63 33 -109 81 -132 138 -14 36 -18 72 -18 175 0
127 1 131 34 199 82 168 270 297 611 420 41 15 84 31 95 36 11 5 31 8 45 7
l25 -2 -3 -375z"/>
<path d="M9395 4371 c-125 -14 -329 -78 -458 -142 -164 -83 -321 -227 -381
-350 -63 -130 -65 -270 -5 -395 63 -133 156 -187 324 -188 88 -1 107 2 157 26
75 35 151 107 184 174 37 76 41 154 15 285 -11 59 -21 119 -21 133 0 31 28 47
136 77 63 17 97 21 174 17 124 -6 182 -31 251 -106 98 -107 127 -197 136 -422
l6 -156 -120 -47 c-67 -25 -221 -81 -344 -122 -462 -157 -585 -208 -718 -296
-166 -110 -270 -249 -323 -436 -19 -66 -22 -102 -22 -233 0 -134 3 -165 23
-230 47 -151 124 -265 242 -356 75 -58 137 -88 254 -125 82 -26 103 -29 240
-29 308 0 528 78 744 263 60 52 77 57 86 27 14 -44 97 -141 154 -179 80 -55
146 -79 260 -96 151 -23 267 -6 486 69 l130 45 0 158 0 158 -160 5 c-96 3
-168 10 -181 17 -32 18 -83 80 -91 111 -9 31 -10 204 -3 997 5 634 3 660 -56
829 -98 282 -317 447 -669 505 -83 14 -365 21 -450 12z m506 -1831 l-3 -375
-42 -44 c-62 -66 -188 -157 -253 -182 -50 -20 -77 -23 -188 -23 -123 -1 -132
0 -175 26 -94 55 -130 110 -150 227 -39 233 68 418 327 564 120 68 419 187
463 184 l25 -2 -4 -375z"/>
<path d="M15400 4370 c-382 -34 -718 -249 -938 -602 -175 -281 -259 -669 -222
-1026 56 -547 279 -926 672 -1146 100 -56 199 -93 326 -122 107 -25 134 -28
312 -27 221 0 306 13 455 70 278 106 505 301 677 583 70 116 80 136 65 148
-46 35 -309 192 -316 188 -5 -3 -28 -38 -51 -78 -213 -362 -413 -485 -733
-449 -208 23 -325 76 -448 201 -61 62 -86 98 -127 181 -77 155 -127 355 -133
534 l-3 70 865 5 864 5 -1 215 c0 270 -25 431 -95 610 -119 310 -395 539 -739
615 -118 26 -298 36 -430 25z m269 -393 c169 -62 269 -262 297 -594 l7 -83
-517 0 -516 0 0 28 c0 48 47 235 78 309 65 154 183 282 302 328 123 47 244 51
349 12z"/>
<path d="M18499 4354 c-189 -34 -352 -119 -516 -268 -33 -31 -64 -56 -67 -56
-3 0 -6 49 -6 108 l0 108 -47 46 -48 46 -480 -34 c-264 -18 -486 -33 -492 -34
-10 0 -13 -40 -13 -165 0 -91 3 -165 8 -165 4 0 44 -5 90 -10 125 -16 201 -43
249 -89 78 -75 74 -18 71 -1006 -3 -862 -3 -881 -23 -907 -11 -15 -30 -31 -42
-37 -29 -14 -121 -28 -225 -36 l-88 -7 0 -169 0 -169 720 0 720 0 0 168 0 167
-114 16 c-128 18 -215 53 -251 102 -20 28 -20 41 -23 808 l-2 780 22 32 c113
162 266 263 445 294 231 40 393 -68 448 -299 22 -94 22 -1581 0 -1634 -20 -49
-74 -70 -215 -84 -63 -6 -121 -13 -127 -15 -10 -3 -13 -46 -13 -170 l0 -165
715 0 715 0 0 168 0 169 -104 11 c-122 13 -201 40 -242 83 l-29 30 -3 796 -2
795 34 46 c112 152 267 245 452 272 224 33 379 -82 429 -317 21 -99 22 -1557
1 -1607 -28 -67 -81 -86 -278 -102 l-88 -6 0 -169 0 -169 725 0 725 0 0 169 0
169 -77 6 c-100 9 -198 33 -246 60 -76 41 -71 -15 -78 906 -5 784 -7 829 -26
915 -71 313 -252 523 -518 603 -108 33 -328 41 -462 18 -108 -19 -229 -61
-320 -112 -82 -45 -244 -168 -303 -228 -24 -25 -47 -46 -51 -46 -3 0 -29 31
-58 69 -74 100 -197 203 -310 261 -24 12 -87 33 -139 46 -78 20 -118 24 -231
23 -75 0 -170 -7 -212 -15z"/>
<path d="M21420 4135 c0 -91 2 -165 4 -165 38 0 172 -37 228 -63 90 -41 142
-85 173 -148 34 -65 398 -943 665 -1599 255 -628 238 -540 139 -741 -100 -203
-219 -398 -322 -527 -28 -34 -54 -62 -58 -62 -5 0 -26 26 -47 57 -44 64 -128
147 -182 180 -51 31 -135 53 -203 53 -92 0 -159 -24 -220 -80 -92 -84 -133
-191 -125 -325 6 -93 39 -163 111 -235 100 -100 197 -139 363 -147 298 -15
516 122 753 471 174 257 332 586 621 1286 227 551 672 1606 698 1653 53 99
205 203 332 228 l60 12 0 158 0 159 -575 0 -575 0 0 -164 0 -164 63 -7 c70 -8
182 -46 245 -82 37 -22 42 -29 42 -60 0 -37 -49 -171 -200 -553 -118 -296
-318 -772 -329 -783 -5 -5 -30 45 -56 110 -26 65 -112 276 -192 468 -173 417
-319 780 -328 816 -6 25 -4 27 62 44 37 9 103 19 146 22 l77 6 0 173 0 174
-685 0 -685 0 0 -165z"/>
</g>
</svg>
